<svg xmlns="http://www.w3.org/2000/svg" width="10" height="10" viewBox="0 0 10 10">
  <g id="Union_1" data-name="Union 1" transform="translate(1395)" fill="#fff">
    <path d="M -1389.999633789063 9.499899864196777 C -1390.275756835938 9.499899864196777 -1390.50048828125 9.275650024414063 -1390.50048828125 9 L -1390.50048828125 6.00029993057251 L -1390.50048828125 5.50029993057251 L -1391.00048828125 5.50029993057251 L -1394.000122070313 5.50029993057251 C -1394.275756835938 5.50029993057251 -1394.5 5.276050090789795 -1394.5 5.000400066375732 C -1394.5 4.724259853363037 -1394.275756835938 4.499599933624268 -1394.000122070313 4.499599933624268 L -1391.00048828125 4.499599933624268 L -1390.50048828125 4.499599933624268 L -1390.50048828125 3.999599933624268 L -1390.50048828125 0.9998999238014221 C -1390.50048828125 0.7242499589920044 -1390.275756835938 0.4999999403953552 -1389.999633789063 0.4999999403953552 C -1389.723999023438 0.4999999403953552 -1389.499755859375 0.7242499589920044 -1389.499755859375 0.9998999238014221 L -1389.499755859375 3.999599933624268 L -1389.499755859375 4.499599933624268 L -1388.999755859375 4.499599933624268 L -1386 4.499599933624268 C -1385.724365234375 4.499599933624268 -1385.500122070313 4.724259853363037 -1385.500122070313 5.000400066375732 C -1385.500122070313 5.276050090789795 -1385.724365234375 5.50029993057251 -1386 5.50029993057251 L -1388.999755859375 5.50029993057251 L -1389.499755859375 5.50029993057251 L -1389.499755859375 6.00029993057251 L -1389.499755859375 9 C -1389.499755859375 9.275650024414063 -1389.723999023438 9.499899864196777 -1389.999633789063 9.499899864196777 Z" stroke="none"/>
    <path d="M -1389.999755859375 8.999898910522461 L -1389.999755859375 6.00029993057251 L -1389.999755859375 5.00029993057251 L -1388.999755859375 5.00029993057251 L -1386 4.999599933624268 L -1388.999755859375 4.999599933624268 L -1389.999755859375 4.999599933624268 L -1389.999755859375 3.999599933624268 L -1390.00048828125 0.9998999238014221 L -1390.00048828125 3.999599933624268 L -1390.00048828125 4.999599933624268 L -1391.00048828125 4.999599933624268 L -1394.000122070313 5.00029993057251 L -1391.00048828125 5.00029993057251 L -1390.00048828125 5.00029993057251 L -1390.00048828125 6.00029993057251 L -1390.001220703125 8.99983024597168 C -1390.001220703125 8.99983024597168 -1390.000732421875 8.999893188476563 -1389.999755859375 8.999898910522461 M -1389.999633789063 9.999899864196777 C -1390.55224609375 9.999899864196777 -1391.00048828125 9.552599906921387 -1391.00048828125 9 L -1391.00048828125 6.00029993057251 L -1394.000122070313 6.00029993057251 C -1394.551879882813 6.00029993057251 -1395 5.552099704742432 -1395 5.000400066375732 C -1395 4.447800159454346 -1394.551879882813 3.999599933624268 -1394.000122070313 3.999599933624268 L -1391.00048828125 3.999599933624268 L -1391.00048828125 0.9998999238014221 C -1391.00048828125 0.4472999274730682 -1390.55224609375 -6.790160966829717e-08 -1389.999633789063 -6.790160966829717e-08 C -1389.447875976563 -6.790160966829717e-08 -1388.999755859375 0.4472999274730682 -1388.999755859375 0.9998999238014221 L -1388.999755859375 3.999599933624268 L -1386 3.999599933624268 C -1385.447387695313 3.999599933624268 -1385.000122070313 4.447800159454346 -1385.000122070313 5.000400066375732 C -1385.000122070313 5.552099704742432 -1385.447387695313 6.00029993057251 -1386 6.00029993057251 L -1388.999755859375 6.00029993057251 L -1388.999755859375 9 C -1388.999755859375 9.552599906921387 -1389.447875976563 9.999899864196777 -1389.999633789063 9.999899864196777 Z" stroke="none" fill="#727c8e"/>
  </g>
</svg>
