<svg xmlns="http://www.w3.org/2000/svg" xmlns:xlink="http://www.w3.org/1999/xlink" width="37.499" height="37.5" viewBox="0 0 37.499 37.5">
  <defs>
    <linearGradient id="linear-gradient" x1="0.386" y1="1.08" x2="0.386" y2="-0.063" gradientUnits="objectBoundingBox">
      <stop offset="0" stop-color="#fff" stop-opacity="0.502"/>
      <stop offset="1" stop-color="#fff"/>
    </linearGradient>
  </defs>
  <path id="clothes" d="M-15.959-114.5a3.278,3.278,0,0,0,.2-1.1,3.268,3.268,0,0,0-.857-2.2,3.27,3.27,0,0,0,.857-2.2,3.268,3.268,0,0,0-.857-2.2,3.27,3.27,0,0,0,.857-2.2,3.3,3.3,0,0,0-3.3-3.3H-31.137v-4.468h-3.3a1.1,1.1,0,0,1-1.1-1.1v-8.862a1.1,1.1,0,0,1,1.1-1.1h10.727l3.556-1.778v-1.517a1.1,1.1,0,0,1,1.1-1.1,1.1,1.1,0,0,0,1.1-1.1,1.1,1.1,0,0,0-1.1-1.1,1.1,1.1,0,0,0-1.1,1.1,1.1,1.1,0,0,1-1.1,1.1,1.1,1.1,0,0,1-1.1-1.1,3.3,3.3,0,0,1,3.3-3.3,3.3,3.3,0,0,1,3.3,3.3,3.3,3.3,0,0,1-2.2,3.109v.607l3.556,1.778H-3.6a1.1,1.1,0,0,1,1.1,1.1v8.862a1.1,1.1,0,0,1-1.1,1.1h-3.3V-115.6a1.1,1.1,0,0,1-1.1,1.1Zm-6.324-26.966a3.3,3.3,0,0,0,3.23,2.65,3.3,3.3,0,0,0,3.231-2.65l-3.231-1.615ZM-38.9-114.5a1.1,1.1,0,0,1-1.1-1.1,1.1,1.1,0,0,1,1.1-1.1h19.849a1.1,1.1,0,0,1,1.1,1.1,1.1,1.1,0,0,1-1.1,1.1Zm0-4.395a1.1,1.1,0,0,1-1.1-1.1,1.1,1.1,0,0,1,1.1-1.1h19.849a1.1,1.1,0,0,1,1.1,1.1,1.1,1.1,0,0,1-1.1,1.1Zm0-4.395a1.1,1.1,0,0,1-1.1-1.1,1.1,1.1,0,0,1,1.1-1.1h19.849a1.1,1.1,0,0,1,1.1,1.1,1.1,1.1,0,0,1-1.1,1.1Z" transform="translate(40 152)" fill="url(#linear-gradient)"/>
</svg>
