<svg width="22" height="17" viewBox="0 0 22 17" fill="none" xmlns="http://www.w3.org/2000/svg">
<g clip-path="url(#clip0)">
<path d="M18.768 0.100006H2.271C1.63936 0.164378 1.05816 0.4739 0.652231 0.962097C0.246303 1.45029 0.048031 2.07822 0.100001 2.71101V14.198C0.048031 14.8308 0.246303 15.4587 0.652231 15.9469C1.05816 16.4351 1.63936 16.7446 2.271 16.809H18.771C19.4026 16.7446 19.9838 16.4351 20.3898 15.9469C20.7957 15.4587 20.994 14.8308 20.942 14.198V2.71101C20.9939 2.07775 20.7952 1.44942 20.3887 0.961136C19.9821 0.472857 19.4002 0.163645 18.768 0.100006ZM20.068 14.2C20.0991 14.5792 19.9804 14.9554 19.7374 15.2481C19.4944 15.5408 19.1464 15.7267 18.768 15.766H2.271C1.8926 15.7267 1.54462 15.5408 1.30163 15.2481C1.05863 14.9554 0.939947 14.5792 0.971001 14.2V2.71101C0.939947 2.33184 1.05863 1.9556 1.30163 1.66288C1.54462 1.37016 1.8926 1.18426 2.271 1.145H18.771C19.1494 1.18426 19.4974 1.37016 19.7404 1.66288C19.9834 1.9556 20.1021 2.33184 20.071 2.71101V14.198L20.068 14.2Z" fill="#515C6F" stroke="#515C6F" stroke-width="0.2"/>
<path d="M20.5 3.233H0.534019C0.407765 3.24593 0.291606 3.30784 0.210468 3.40543C0.12933 3.50302 0.0896775 3.62851 0.100019 3.755V6.88802C0.0894147 7.01456 0.128971 7.1402 0.210159 7.23785C0.291347 7.3355 0.407661 7.39733 0.534019 7.41H20.5C20.6264 7.39733 20.7427 7.3355 20.8239 7.23785C20.9051 7.1402 20.9446 7.01456 20.934 6.88802V3.755C20.9444 3.62851 20.9047 3.50302 20.8236 3.40543C20.7424 3.30784 20.6263 3.24593 20.5 3.233ZM20.066 6.36601H0.968019V4.27701H20.068V6.36601H20.066Z" fill="#515C6F" stroke="#515C6F" stroke-width="0.2"/>
<path d="M10.021 10.543H3.75497C3.61653 10.543 3.48376 10.598 3.38586 10.6959C3.28797 10.7938 3.23297 10.9265 3.23297 11.065C3.23297 11.2034 3.28797 11.3362 3.38586 11.4341C3.48376 11.532 3.61653 11.587 3.75497 11.587H10.021C10.1594 11.587 10.2922 11.532 10.3901 11.4341C10.488 11.3362 10.543 11.2034 10.543 11.065C10.543 10.9265 10.488 10.7938 10.3901 10.6959C10.2922 10.598 10.1594 10.543 10.021 10.543Z" fill="#515C6F" stroke="#515C6F" stroke-width="0.2"/>
<path d="M10.021 12.632H3.75497C3.61653 12.632 3.48376 12.687 3.38586 12.7849C3.28797 12.8828 3.23297 13.0156 3.23297 13.154C3.23297 13.2925 3.28797 13.4252 3.38586 13.5231C3.48376 13.621 3.61653 13.676 3.75497 13.676H10.021C10.1594 13.676 10.2922 13.621 10.3901 13.5231C10.488 13.4252 10.543 13.2925 10.543 13.154C10.543 13.0156 10.488 12.8828 10.3901 12.7849C10.2922 12.687 10.1594 12.632 10.021 12.632Z" fill="#515C6F" stroke="#515C6F" stroke-width="0.2"/>
<path d="M16.239 9.49902H15.195C14.7799 9.49955 14.3819 9.66472 14.0883 9.95828C13.7947 10.2518 13.6296 10.6498 13.629 11.065V12.109C13.6296 12.5242 13.7947 12.9222 14.0883 13.2158C14.3819 13.5093 14.7799 13.6745 15.195 13.675H16.239C16.6544 13.6748 17.0526 13.5097 17.3464 13.2161C17.6402 12.9225 17.8055 12.5243 17.806 12.109V11.066C17.8058 10.6505 17.6406 10.2521 17.3468 9.95828C17.053 9.66447 16.6546 9.49929 16.239 9.49902ZM16.761 12.11C16.761 12.2485 16.706 12.3812 16.6081 12.4791C16.5102 12.577 16.3775 12.632 16.239 12.632H15.195C15.0566 12.632 14.9238 12.577 14.8259 12.4791C14.728 12.3812 14.673 12.2485 14.673 12.11V11.066C14.673 10.9276 14.728 10.7948 14.8259 10.6969C14.9238 10.599 15.0566 10.544 15.195 10.544H16.239C16.3775 10.544 16.5102 10.599 16.6081 10.6969C16.706 10.7948 16.761 10.9276 16.761 11.066V12.11Z" fill="#515C6F" stroke="#515C6F" stroke-width="0.2"/>
</g>
<defs>
<clipPath id="clip0">
<rect width="21.038" height="16.909" fill="white"/>
</clipPath>
</defs>
</svg>
