<svg xmlns="http://www.w3.org/2000/svg" xmlns:xlink="http://www.w3.org/1999/xlink" width="30.97" height="36.802" viewBox="0 0 30.97 36.802">
  <defs>
    <linearGradient id="linear-gradient" x1="0.5" x2="0.5" y2="1" gradientUnits="objectBoundingBox">
      <stop offset="0" stop-color="#fff"/>
      <stop offset="1" stop-color="#fff" stop-opacity="0.518"/>
    </linearGradient>
  </defs>
  <path id="Beauty" d="M19.211,36.8a1.7,1.7,0,0,1-1.7-1.7V16.688a6.731,6.731,0,0,1,13.461,0V35.1a1.7,1.7,0,0,1-1.7,1.7ZM1.7,36.8A1.7,1.7,0,0,1,0,35.1V26.61A1.7,1.7,0,0,1,1.166,25l.392-10.877A2.628,2.628,0,0,1,3.514,11.7L3.5,1.122A1.33,1.33,0,0,1,3.7.367.814.814,0,0,1,4.381,0a1.261,1.261,0,0,1,.8.338L9.795,4.19a3.517,3.517,0,0,1,1.13,2.421L10.919,11.7a2.626,2.626,0,0,1,1.951,2.422L13.263,25A1.7,1.7,0,0,1,14.43,26.61V35.1a1.7,1.7,0,0,1-1.7,1.7ZM3.573,15.433,3.23,24.908H11.2l-.343-9.475a1.111,1.111,0,0,0-1.1-1.06H4.672A1.111,1.111,0,0,0,3.573,15.433Z" fill="url(#linear-gradient)"/>
</svg>
