<svg xmlns="http://www.w3.org/2000/svg" width="16" height="21.904" viewBox="0 0 16 21.904">
  <path id="_005-bell" data-name="005-bell" d="M14.575,14.631H14.42l-.756-6.6a5.2,5.2,0,0,0-3.288-4.258,2.353,2.353,0,1,0-3.752,0A5.2,5.2,0,0,0,3.336,8.029l-.756,6.6H2.425a1.925,1.925,0,1,0,0,3.85h4.15v1.5a1.925,1.925,0,1,0,3.85,0v-1.5h4.15a1.925,1.925,0,0,0,0-3.85ZM8.5,1.283a1.07,1.07,0,1,1-1.07,1.07A1.071,1.071,0,0,1,8.5,1.283ZM4.611,8.175a3.914,3.914,0,0,1,7.778,0l.739,6.456H3.872Zm4.531,11.8a.642.642,0,1,1-1.283,0v-1.5H9.142ZM14.575,17.2H2.425a.642.642,0,1,1,0-1.283h12.15a.642.642,0,1,1,0,1.283Zm0,0" transform="translate(-0.5)" fill="#727c8e"/>
</svg>
