<svg xmlns="http://www.w3.org/2000/svg" width="21.115" height="17.387" viewBox="0 0 21.115 17.387">
  <path id="currency" d="M20.386,8.939V5.793A1.858,1.858,0,0,0,18.53,3.937H16.021L12.766.681a.618.618,0,0,0-.875,0l-1.3,1.3-1.3-1.3a.618.618,0,0,0-.875,0L5.163,3.937H1.856A1.858,1.858,0,0,0,0,5.793V16.031a1.858,1.858,0,0,0,1.856,1.856H18.53a1.858,1.858,0,0,0,1.856-1.856V12.885a1.239,1.239,0,0,0,.729-1.127v-1.69A1.239,1.239,0,0,0,20.386,8.939ZM18.53,16.65H17.076a1.848,1.848,0,0,0,.106-.619V12.994h1.966v3.037A.619.619,0,0,1,18.53,16.65Zm-16.674,0a.619.619,0,0,1-.619-.619V5.793a.619.619,0,0,1,.619-.619H15.327a.619.619,0,0,1,.619.619V8.83H13.62a1.239,1.239,0,0,0-1.237,1.237v1.69a1.239,1.239,0,0,0,1.237,1.237h2.326v3.037a.619.619,0,0,1-.619.619ZM19.149,5.793V8.83H17.183V5.793a1.847,1.847,0,0,0-.106-.619H18.53A.619.619,0,0,1,19.149,5.793ZM13.62,11.757v-1.69h6.257v1.69H13.62Zm.652-7.82H10.385l1.943-1.943Zm-5.636,0H6.913L8.856,1.993l.861.861Zm0,0" transform="translate(0 -0.5)" fill="#727c8e"/>
</svg>
