<svg xmlns="http://www.w3.org/2000/svg" width="18.516" height="18.5" viewBox="0 0 18.516 18.5">
  <path id="Path_77" data-name="Path 77" d="M17.924,7.451a.683.683,0,0,0-.593-.358H.674a.667.667,0,0,0-.581.346.7.7,0,0,0,0,.692L5.761,18.239V24.4a.684.684,0,0,0,.671.692H10.9a.684.684,0,0,0,.671-.692V18.274l3.46-5.543,2.856-4.576A.717.717,0,0,0,17.924,7.451ZM10.345,17.7a.754.754,0,0,0-.112.381v5.631H7.1V18.055a.722.722,0,0,0-.089-.346L1.837,8.478H16.1Z" transform="translate(0.257 -6.843)" fill="#727c8e" stroke="#727c8e" stroke-width="0.5"/>
</svg>
