<svg xmlns="http://www.w3.org/2000/svg" width="17.647" height="22.2" viewBox="0 0 17.647 22.2">
  <path id="finished" d="M-1377.4-318.3a3.6,3.6,0,0,1-2.628-1.147,3.6,3.6,0,0,1-.944-2.708l.983-12.384a1.547,1.547,0,0,1,1.535-1.42h1.941v-.087a4.257,4.257,0,0,1,4.252-4.253,4.257,4.257,0,0,1,4.252,4.253v.087h1.94a1.547,1.547,0,0,1,1.535,1.422l.983,12.38a3.6,3.6,0,0,1-.943,2.71,3.6,3.6,0,0,1-2.629,1.147Zm-1.3-16.139-.983,12.383a2.271,2.271,0,0,0,.6,1.733,2.272,2.272,0,0,0,1.683.734h10.279a2.272,2.272,0,0,0,1.683-.734,2.27,2.27,0,0,0,.6-1.734l-.982-12.379a.253.253,0,0,0-.251-.234h-1.94v1.587a.645.645,0,0,1-.644.644.645.645,0,0,1-.644-.644v-1.587h-5.928v1.587a.644.644,0,0,1-.644.644.644.644,0,0,1-.644-.644v-1.587h-1.941A.252.252,0,0,0-1378.7-334.44Zm3.479-1.608v.087h5.928v-.087a2.967,2.967,0,0,0-2.964-2.964A2.968,2.968,0,0,0-1375.223-336.048Zm1.4,11.182-1.824-1.824a.752.752,0,0,1,0-1.065.754.754,0,0,1,1.065,0l1.292,1.292,3.361-3.361a.751.751,0,0,1,1.064,0,.752.752,0,0,1,0,1.065l-3.892,3.892a.75.75,0,0,1-.533.221A.751.751,0,0,1-1373.825-324.866Z" transform="translate(1381.082 340.401)" fill="#727c8e" stroke="#727c8e" stroke-width="0.2"/>
</svg>
