<svg xmlns="http://www.w3.org/2000/svg" width="20.1" height="20.153" viewBox="0 0 20.1 20.153">
  <path id="invite" d="M19.454,7.55l-2.5-2.086v-1.1A1.523,1.523,0,0,0,15.435,2.84h-1.62L11.27.714a1.946,1.946,0,0,0-2.54,0L6.185,2.84H4.565A1.523,1.523,0,0,0,3.043,4.362v1.1L.546,7.55A1.523,1.523,0,0,0,0,8.718v9.55a1.959,1.959,0,0,0,1.957,1.957H18.043A1.959,1.959,0,0,0,20,18.268V8.718A1.523,1.523,0,0,0,19.454,7.55Zm-2.5-.386L18.33,8.311,16.957,9.459ZM9.569,1.713l.006-.005a.649.649,0,0,1,.849,0l.006.005L11.78,2.84H8.22ZM4.348,5.765h0v-1.4a.218.218,0,0,1,.217-.217h10.87a.218.218,0,0,1,.217.217v1.4h0v4.783l-5.221,4.361-.006.005a.649.649,0,0,1-.849,0l-.006-.005L4.348,10.548Zm-1.3,1.4v2.3L1.67,8.311ZM18.7,18.268a.653.653,0,0,1-.652.652H1.957a.653.653,0,0,1-.652-.652V9.706l7.426,6.2a1.946,1.946,0,0,0,2.54,0l5.45-4.551h0L18.7,9.706Z" transform="translate(0.05 -0.121)" fill="#727c8e" stroke="#727c8e" stroke-width="0.1"/>
</svg>
