<svg id="language" xmlns="http://www.w3.org/2000/svg" width="21.156" height="21.156" viewBox="0 0 21.156 21.156">
  <path id="Path_58" data-name="Path 58" d="M14.09,18.677,17.4,21.156V18.677h3.76V7.479H13.677V0H0V11.2H3.76v2.479L7.066,11.2h.413v7.479Zm5.826-1.24h-3.76v1.24L14.5,17.437H8.719V8.719h11.2ZM6.653,9.958,5,11.2V9.958H1.24V1.24h11.2V7.479H9.721L6.859,1.754,3.825,7.822l1.109.554.758-1.517H8.026l.31.62H7.479V9.958ZM7.406,5.62H6.312l.547-1.093Zm0,0" fill="#727c8e"/>
  <path id="Path_59" data-name="Path 59" d="M273.23,245.107a3.209,3.209,0,0,1-1.61.851v1.24a4.383,4.383,0,0,0,2.479-1.2,4.383,4.383,0,0,0,2.479,1.2v-1.24a3.209,3.209,0,0,1-1.61-.851,4.535,4.535,0,0,0,.9-1.628H277.2v-1.24h-2.479V241h-1.24v1.24H271v1.24h1.326A4.534,4.534,0,0,0,273.23,245.107Zm.869-.9a3.823,3.823,0,0,1-.457-.732h.915A3.82,3.82,0,0,1,274.1,244.211Zm0,0" transform="translate(-259.802 -231.042)" fill="#727c8e"/>
</svg>
