<svg xmlns="http://www.w3.org/2000/svg" width="19.264" height="14.2" viewBox="0 0 19.264 14.2">
  <g id="_001-mail" data-name="001-mail" transform="translate(0.1 -67.9)">
    <g id="Group_114" data-name="Group 114" transform="translate(0 68)">
      <g id="Group_113" data-name="Group 113" transform="translate(0 0)">
        <path id="Path_64" data-name="Path 64" d="M16.83,68H2.234A2.237,2.237,0,0,0,0,70.234v9.532A2.237,2.237,0,0,0,2.234,82h14.6a2.237,2.237,0,0,0,2.234-2.234V70.234A2.237,2.237,0,0,0,16.83,68Zm.745,11.766a.746.746,0,0,1-.745.745H2.234a.746.746,0,0,1-.745-.745V70.234a.746.746,0,0,1,.745-.745h14.6a.746.746,0,0,1,.745.745Z" transform="translate(0 -68)" fill="#727c8e" stroke="#727c8e" stroke-width="0.2"/>
      </g>
    </g>
    <g id="Group_116" data-name="Group 116" transform="translate(0.727 68.929)">
      <g id="Group_115" data-name="Group 115" transform="translate(0 0)">
        <path id="Path_65" data-name="Path 65" d="M36.243,92.937l-7.916,5.888-7.916-5.888-.889,1.2,8.805,6.549,8.805-6.549Z" transform="translate(-19.522 -92.937)" fill="#727c8e"/>
      </g>
    </g>
  </g>
</svg>
