<svg xmlns="http://www.w3.org/2000/svg" width="18.511" height="19.441" viewBox="0 0 18.511 19.441">
  <g id="Messages" transform="translate(-45.9 -45.9)" fill="none" stroke-linecap="round">
    <path d="M55,61.509a7.208,7.208,0,0,0,2.736-.535.411.411,0,0,1,.057-.024s.007,0,.007,0a1.084,1.084,0,0,1,.377-.067,1.023,1.023,0,0,1,.407.081L61.411,62l-.744-2.975a1.01,1.01,0,0,1,.131-.491h0a1.148,1.148,0,0,1,.084-.125,6.543,6.543,0,0,0,1.111-3.648A7,7,0,1,0,55,61.509Z" stroke="none"/>
    <path d="M 61.41106414794922 62 L 60.66729354858398 59.02500915527344 C 60.66729354858398 58.84664154052734 60.71778106689453 58.67835998535156 60.79855346679688 58.53366088867188 C 60.82547378540039 58.48991012573242 60.85240173339844 58.44615936279297 60.88268280029297 58.40914154052734 C 61.58605194091797 57.35577011108398 61.99327087402344 56.10383987426758 61.99327087402344 54.76105880737305 C 61.99999237060547 51.02547836303711 58.8668212890625 48 54.99999237060547 48 C 51.13317108154297 48 47.99999237060547 51.02547836303711 47.99999237060547 54.75432968139648 C 47.99999237060547 58.48654174804688 51.13317108154297 61.50865173339844 54.99999237060547 61.50865173339844 C 55.97259140014648 61.50865173339844 56.8980712890625 61.31682968139648 57.73605346679688 60.97356033325195 C 57.75625228881836 60.96347045898438 57.7730712890625 60.95672988891602 57.79326248168945 60.95000076293945 C 57.796630859375 60.95000076293945 57.79999160766602 60.95000076293945 57.79999160766602 60.94664001464844 C 57.91779327392578 60.90288925170898 58.04566192626953 60.87932968139648 58.17692184448242 60.87932968139648 C 58.32163238525391 60.87932968139648 58.45961380004883 60.90625 58.58413314819336 60.96009826660156 L 61.41106414794922 62 M 64.41100311279297 65.34111785888672 L 60.68606185913086 63.97087860107422 L 58.18519592285156 63.05092239379883 C 57.16732025146484 63.42119979858398 56.09767532348633 63.60865020751953 54.99999237060547 63.60865020751953 C 52.58293151855469 63.60865020751953 50.30714416503906 62.69726181030273 48.59185409545898 61.0423583984375 C 46.85598373413086 59.36759948730469 45.89999389648438 57.13447189331055 45.89999389648438 54.75432968139648 C 45.89999389648438 49.87203979492188 49.98223114013672 45.90000152587891 54.99999237060547 45.90000152587891 C 57.47988128662109 45.90000152587891 59.79679107666016 46.85289001464844 61.52394104003906 48.58314895629883 C 63.18497085571289 50.24716949462891 64.09744262695313 52.44253921508789 64.09326934814453 54.76483917236328 C 64.09326934814453 56.32452774047852 63.67264938354492 57.84565353393555 62.87291717529297 59.1889533996582 L 63.4483642578125 61.49066162109375 L 64.41100311279297 65.34111785888672 Z" stroke="none" fill="#727c8e"/>
  </g>
</svg>
