<svg xmlns="http://www.w3.org/2000/svg" width="24.011" height="24" viewBox="0 0 24.011 24">
  <g id="_003-tag" data-name="003-tag" transform="translate(0 -0.106)">
    <path id="Path_51" data-name="Path 51" d="M23.089,13.379,13.77,4.055a2.6,2.6,0,0,0-1.844-.767c-.057,0-.114,0-.171.005l-6.739.445A1.471,1.471,0,0,0,3.649,5.107L3.488,7.5a4.644,4.644,0,0,1-.963-.741A4.229,4.229,0,0,1,1.266,4.231a2.626,2.626,0,0,1,.7-2.176C3.11.911,5.218,1.165,6.674,2.615a.623.623,0,0,0,.881-.881C5.607-.2,2.706-.446,1.08,1.181A3.847,3.847,0,0,0,.023,4.361,5.461,5.461,0,0,0,1.639,7.645,5.784,5.784,0,0,0,3.4,8.852l-.2,3a2.605,2.605,0,0,0,.761,2.02l9.324,9.324a3.1,3.1,0,0,0,2.207.912h0a3.116,3.116,0,0,0,2.207-.912l5.4-5.4a3.114,3.114,0,0,0-.01-4.413Zm-.875,3.527-5.408,5.408a1.865,1.865,0,0,1-1.326.549h0a1.865,1.865,0,0,1-1.326-.549L4.83,12.991a1.365,1.365,0,0,1-.4-1.057L4.612,9.22c.1.016.207.031.311.041.155.016.311.026.461.026A3.76,3.76,0,0,0,8.1,8.21a.623.623,0,0,0-.881-.881,2.626,2.626,0,0,1-2.176.7C4.923,8.018,4.809,8,4.7,7.976L4.882,5.2a.228.228,0,0,1,.212-.212l6.739-.445c.031,0,.062-.005.093-.005a1.376,1.376,0,0,1,.969.4l9.318,9.318a1.876,1.876,0,0,1,0,2.652Z" transform="translate(0 0)" fill="#fff"/>
  </g>
</svg>