<svg xmlns="http://www.w3.org/2000/svg" width="22.803" height="23.764" viewBox="0 0 22.803 23.764">
  <g id="_002-discount" data-name="002-discount" transform="translate(-10.359 0.002)">
    <g id="Group_92" data-name="Group 92" transform="translate(10.359 -0.002)">
      <g id="Group_91" data-name="Group 91" transform="translate(0 0)">
        <path id="Path_47" data-name="Path 47" d="M32.062,12.188a.7.7,0,0,1,0-.616l.886-1.813a2.063,2.063,0,0,0-.89-2.74l-1.783-.946a.7.7,0,0,1-.362-.5l-.349-1.988a2.063,2.063,0,0,0-2.33-1.693l-2,.283a.7.7,0,0,1-.585-.19L23.2.584a2.063,2.063,0,0,0-2.881,0l-1.451,1.4a.7.7,0,0,1-.585.19l-2-.283a2.063,2.063,0,0,0-2.33,1.693l-.349,1.988a.7.7,0,0,1-.362.5l-1.783.946a2.063,2.063,0,0,0-.89,2.74l.886,1.813a.7.7,0,0,1,0,.616L10.572,14a2.063,2.063,0,0,0,.89,2.74l1.783.946a.7.7,0,0,1,.362.5l.349,1.988a2.062,2.062,0,0,0,2.034,1.714,2.119,2.119,0,0,0,.3-.021l2-.283a.7.7,0,0,1,.585.19l1.45,1.4a2.063,2.063,0,0,0,2.88,0l1.451-1.4a.7.7,0,0,1,.585-.19l2,.283a2.063,2.063,0,0,0,2.33-1.693l.349-1.988a.7.7,0,0,1,.362-.5l1.783-.946a2.063,2.063,0,0,0,.89-2.74Zm-.646,3.342-1.783.946a2.058,2.058,0,0,0-1.069,1.472l-.349,1.988a.7.7,0,0,1-.788.573l-2-.283a2.058,2.058,0,0,0-1.73.562l-1.451,1.4a.7.7,0,0,1-.975,0l-1.45-1.4a2.056,2.056,0,0,0-1.435-.583,2.1,2.1,0,0,0-.295.021l-2,.283a.7.7,0,0,1-.788-.573l-.349-1.988a2.058,2.058,0,0,0-1.069-1.472L12.1,15.53a.7.7,0,0,1-.3-.927l.886-1.813a2.058,2.058,0,0,0,0-1.819L11.8,9.157a.7.7,0,0,1,.3-.927l1.783-.946a2.058,2.058,0,0,0,1.069-1.472l.349-1.988a.7.7,0,0,1,.788-.573l2,.283a2.058,2.058,0,0,0,1.73-.562l1.451-1.4a.7.7,0,0,1,.975,0l1.45,1.4a2.058,2.058,0,0,0,1.73.562l2-.283a.7.7,0,0,1,.788.573l.349,1.988a2.058,2.058,0,0,0,1.069,1.472l1.783.946a.7.7,0,0,1,.3.927l-.886,1.813a2.058,2.058,0,0,0,0,1.819l.886,1.813A.7.7,0,0,1,31.416,15.53Z" transform="translate(-10.359 0.002)" fill="#fff"/>
      </g>
    </g>
    <g id="Group_94" data-name="Group 94" transform="translate(16.552 6.672)">
      <g id="Group_93" data-name="Group 93" transform="translate(0)">
        <path id="Path_48" data-name="Path 48" d="M154.007,143.992a.685.685,0,0,0-.969,0l-9.046,9.046a.685.685,0,1,0,.969.969l9.046-9.046A.685.685,0,0,0,154.007,143.992Z" transform="translate(-143.792 -143.792)" fill="#fff"/>
      </g>
    </g>
    <g id="Group_96" data-name="Group 96" transform="translate(16.506 5.713)">
      <g id="Group_95" data-name="Group 95" transform="translate(0)">
        <path id="Path_49" data-name="Path 49" d="M145.315,123.116a2.513,2.513,0,1,0,2.513,2.513A2.516,2.516,0,0,0,145.315,123.116Zm0,3.655a1.142,1.142,0,1,1,1.142-1.142A1.143,1.143,0,0,1,145.315,126.771Z" transform="translate(-142.802 -123.116)" fill="#fff"/>
      </g>
    </g>
    <g id="Group_98" data-name="Group 98" transform="translate(21.989 13.023)">
      <g id="Group_97" data-name="Group 97" transform="translate(0)">
        <path id="Path_50" data-name="Path 50" d="M263.435,280.61a2.513,2.513,0,1,0,2.513,2.513A2.516,2.516,0,0,0,263.435,280.61Zm0,3.655a1.142,1.142,0,1,1,1.142-1.142A1.144,1.144,0,0,1,263.435,284.265Z" transform="translate(-260.922 -280.61)" fill="#fff"/>
      </g>
    </g>
  </g>
</svg>
