<svg xmlns="http://www.w3.org/2000/svg" width="18.556" height="21.308" viewBox="0 0 18.556 21.308">
  <g id="_002-order" data-name="002-order" transform="translate(-33.062)">
    <g id="Group_88" data-name="Group 88" transform="translate(33.062)">
      <g id="Group_87" data-name="Group 87" transform="translate(0)">
        <path id="Path_42" data-name="Path 42" d="M51.534,5.881l-.016-.027a1.007,1.007,0,0,0-.075-.13L48.479.6A1.2,1.2,0,0,0,47.441,0h-10.2A1.2,1.2,0,0,0,36.2.6L33.188,5.826a.625.625,0,0,0-.061.146,1.055,1.055,0,0,0-.066.367v13.5a1.47,1.47,0,0,0,1.468,1.468H50.149a1.47,1.47,0,0,0,1.468-1.468V6.291c0-.018,0-.036,0-.054A.621.621,0,0,0,51.534,5.881ZM42.986,1.249h4.426l2.332,4.032H42.986Zm-5.717,0h4.468V5.281H34.944Zm13.1,18.59a.22.22,0,0,1-.219.219H34.53a.22.22,0,0,1-.219-.219V6.529H50.369Z" transform="translate(-33.062)" fill="#fff"/>
      </g>
    </g>
    <g id="Group_90" data-name="Group 90" transform="translate(39.365 11.055)">
      <g id="Group_89" data-name="Group 89">
        <path id="Path_43" data-name="Path 43" d="M190.322,265.815a.625.625,0,0,0-.883,0L186.65,268.6l-1.072-1.072a.624.624,0,1,0-.883.883l1.514,1.514a.624.624,0,0,0,.883,0l3.23-3.23A.625.625,0,0,0,190.322,265.815Z" transform="translate(-184.512 -265.632)" fill="#fff"/>
      </g>
    </g>
  </g>
</svg>
