<svg id="_001-location-pin" data-name="001-location-pin" xmlns="http://www.w3.org/2000/svg" width="20.4" height="24.196" viewBox="0 0 20.4 24.196">
  <path id="Path_44" data-name="Path 44" d="M102.922,97.057a3.795,3.795,0,1,0-3.795,3.8A3.8,3.8,0,0,0,102.922,97.057Zm-3.795,2.377a2.377,2.377,0,1,1,2.377-2.377A2.38,2.38,0,0,1,99.127,99.434Zm0,0" transform="translate(-90.827 -88.854)" fill="#fff"/>
  <path id="Path_45" data-name="Path 45" d="M15.1,13.163l.506-.916,0-.006A8.3,8.3,0,1,0,1,12.245L7.264,23.58a1.184,1.184,0,0,0,2.071,0l.99-1.79A5.518,5.518,0,1,0,15.1,13.163ZM9.578,20.211,8.3,22.523,2.243,11.568a6.882,6.882,0,1,1,12.117,0l-1,1.807a5.521,5.521,0,0,0-3.782,6.84Zm5.3,2.567a4.1,4.1,0,1,1,4.1-4.1A4.106,4.106,0,0,1,14.88,22.778Zm0,0" fill="#fff"/>
  <path id="Path_46" data-name="Path 46" d="M265.558,355l-1.9,1.9-.7-.7a.709.709,0,1,0-1,1l1.2,1.2a.714.714,0,0,0,1,0h0l2.4-2.4a.709.709,0,0,0-1-1Zm0,0" transform="translate(-249.376 -338.023)" fill="#fff"/>
</svg>
