<svg xmlns="http://www.w3.org/2000/svg" width="19.25" height="22" viewBox="0 0 19.25 22">
  <g id="_002-password" data-name="002-password" transform="translate(-32)">
    <g id="Group_118" data-name="Group 118" transform="translate(32)">
      <g id="Group_117" data-name="Group 117">
        <circle id="Ellipse_18" data-name="Ellipse 18" cx="0.898" cy="0.898" r="0.898" transform="translate(13.603 13.954)" fill="#727c8e"/>
        <path id="Path_66" data-name="Path 66" d="M50.391,15.555a.859.859,0,0,0,.859-.859v-3.18a3.441,3.441,0,0,0-3.437-3.437H46.78V5.047a5.157,5.157,0,0,0-10.312,0V8.078h-1.03A3.441,3.441,0,0,0,32,11.516v7.047A3.441,3.441,0,0,0,35.438,22H47.812a3.441,3.441,0,0,0,3.438-3.437.859.859,0,1,0-1.719,0,1.721,1.721,0,0,1-1.719,1.719H35.438a1.721,1.721,0,0,1-1.719-1.719V11.516A1.721,1.721,0,0,1,35.438,9.8H47.812a1.721,1.721,0,0,1,1.719,1.719V14.7A.859.859,0,0,0,50.391,15.555Zm-5.33-7.477H38.186V5.047a3.439,3.439,0,0,1,6.875,0Z" transform="translate(-32)" fill="#727c8e"/>
        <circle id="Ellipse_19" data-name="Ellipse 19" cx="0.898" cy="0.898" r="0.898" transform="translate(7.144 13.954)" fill="#727c8e"/>
        <circle id="Ellipse_20" data-name="Ellipse 20" cx="0.898" cy="0.898" r="0.898" transform="translate(3.936 13.954)" fill="#727c8e"/>
        <circle id="Ellipse_21" data-name="Ellipse 21" cx="0.898" cy="0.898" r="0.898" transform="translate(10.352 13.954)" fill="#727c8e"/>
      </g>
    </g>
  </g>
</svg>
