<svg xmlns="http://www.w3.org/2000/svg" width="21.038" height="16.909" viewBox="0 0 21.038 16.909">
  <g id="payment" transform="translate(0.1 -85.233)">
    <g id="Group_102" data-name="Group 102" transform="translate(0 85.333)">
      <g id="Group_101" data-name="Group 101" transform="translate(0 0)">
        <path id="Path_53" data-name="Path 53" d="M18.668,85.333H2.171A2.425,2.425,0,0,0,0,87.944V99.431a2.425,2.425,0,0,0,2.171,2.611h16.5a2.425,2.425,0,0,0,2.171-2.611V87.944A2.425,2.425,0,0,0,18.668,85.333Zm1.3,14.1a1.455,1.455,0,0,1-1.3,1.566H2.171a1.455,1.455,0,0,1-1.3-1.566V87.944a1.455,1.455,0,0,1,1.3-1.566h16.5a1.455,1.455,0,0,1,1.3,1.566V99.431Z" transform="translate(0 -85.333)" fill="#727c8e" stroke="#727c8e" stroke-width="0.2"/>
      </g>
    </g>
    <g id="Group_104" data-name="Group 104" transform="translate(0 88.466)">
      <g id="Group_103" data-name="Group 103" transform="translate(0 0)">
        <path id="Path_54" data-name="Path 54" d="M20.4,149.333H.434a.485.485,0,0,0-.434.522v3.133a.484.484,0,0,0,.434.522H20.4a.484.484,0,0,0,.434-.522v-3.133A.485.485,0,0,0,20.4,149.333Zm-.434,3.133H.868v-2.089h19.1v2.089Z" transform="translate(0 -149.333)" fill="#727c8e" stroke="#727c8e" stroke-width="0.2"/>
      </g>
    </g>
    <g id="Group_106" data-name="Group 106" transform="translate(3.133 95.776)">
      <g id="Group_105" data-name="Group 105" transform="translate(0 0)">
        <path id="Path_55" data-name="Path 55" d="M70.788,298.667H64.522a.522.522,0,1,0,0,1.044h6.266a.522.522,0,1,0,0-1.044Z" transform="translate(-64 -298.667)" fill="#727c8e" stroke="#727c8e" stroke-width="0.2"/>
      </g>
    </g>
    <g id="Group_108" data-name="Group 108" transform="translate(3.133 97.865)">
      <g id="Group_107" data-name="Group 107" transform="translate(0 0)">
        <path id="Path_56" data-name="Path 56" d="M70.788,341.333H64.522a.522.522,0,1,0,0,1.044h6.266a.522.522,0,1,0,0-1.044Z" transform="translate(-64 -341.333)" fill="#727c8e" stroke="#727c8e" stroke-width="0.2"/>
      </g>
    </g>
    <g id="Group_110" data-name="Group 110" transform="translate(13.528 94.732)">
      <g id="Group_109" data-name="Group 109" transform="translate(0 0)">
        <path id="Path_57" data-name="Path 57" d="M365.278,277.333h-1.044a1.568,1.568,0,0,0-1.566,1.566v1.044a1.568,1.568,0,0,0,1.566,1.566h1.044a1.568,1.568,0,0,0,1.567-1.566V278.9A1.568,1.568,0,0,0,365.278,277.333Zm.522,2.611a.522.522,0,0,1-.522.522h-1.044a.522.522,0,0,1-.522-.522V278.9a.522.522,0,0,1,.522-.522h1.044a.522.522,0,0,1,.522.522Z" transform="translate(-362.667 -277.333)" fill="#727c8e" stroke="#727c8e" stroke-width="0.2"/>
      </g>
    </g>
  </g>
</svg>
