<svg xmlns="http://www.w3.org/2000/svg" width="20" height="23.636" viewBox="0 0 20 23.636">
  <path id="pending_shipments" data-name="pending shipments" d="M17.071,2.929A10,10,0,0,0,0,9.925s0,.008,0,.012L.045,10l5.489,7.8v5.836h8.949V17.8L19.971,10,20,9.959a.26.26,0,0,0,0-.029A9.931,9.931,0,0,0,17.071,2.929ZM10,1.385a8.629,8.629,0,0,1,8.509,7.259h0a3.275,3.275,0,0,0-1.646-.377,3.792,3.792,0,0,0-2.215.905,3.56,3.56,0,0,0-2.439-.905,3.794,3.794,0,0,0-2.215.905,3.563,3.563,0,0,0-2.439-.905,3.794,3.794,0,0,0-2.215.905A3.566,3.566,0,0,0,2.9,8.267a3.424,3.424,0,0,0-1.409.378h0A8.629,8.629,0,0,1,10,1.385Zm3.1,20.866H6.919V18.235H13.1Zm-3.824-5.4H8.645L6.159,10.291a2.463,2.463,0,0,1,1.451-.64,2.355,2.355,0,0,1,1.664.729Zm1.385,0V10.434a2.587,2.587,0,0,1,1.605-.783,2.274,2.274,0,0,1,1.559.637L11.335,16.85ZM1.79,10.072a2.251,2.251,0,0,1,1.174-.422,2.481,2.481,0,0,1,1.8.869l2.4,6.33h-.6ZM13.457,16.85h-.641l2.39-6.305a2.683,2.683,0,0,1,1.712-.894,2.1,2.1,0,0,1,1.3.435h0Zm0,0" transform="translate(0)" fill="#727c8e"/>
</svg>
