<svg xmlns="http://www.w3.org/2000/svg" width="20" height="18.677" viewBox="0 0 20 18.677">
  <path id="pending_payment" data-name="pending payment" d="M-1417.819-275.324a4.487,4.487,0,0,1-3.365-1.6,5.338,5.338,0,0,1-1.346-3.479v-3.025a.794.794,0,0,1,.47-.724l3.9-1.742a.785.785,0,0,1,.4-.066.787.787,0,0,1,.4.066l3.9,1.742a.793.793,0,0,1,.47.724v3.025a5.338,5.338,0,0,1-1.346,3.479,4.487,4.487,0,0,1-3.365,1.6Zm-3.123-7.591v2.509a3.465,3.465,0,0,0,3.123,3.493h.107a3.466,3.466,0,0,0,3.123-3.493v-2.509l-3.177-1.42Zm-8.933,3.535a3.121,3.121,0,0,1-3.125-3.11v-8.4a3.121,3.121,0,0,1,3.125-3.111h13.75a3.122,3.122,0,0,1,3.125,3.111v4.126a.78.78,0,0,1-.781.778.78.78,0,0,1-.781-.778v-1.555h-16.875v5.828a1.561,1.561,0,0,0,1.562,1.555h5.2a.78.78,0,0,1,.781.778.78.78,0,0,1-.781.778Zm-1.562-11.51v1.016h16.875v-1.016a1.561,1.561,0,0,0-1.562-1.555h-13.75A1.561,1.561,0,0,0-1431.437-290.889Z" transform="translate(1433 294)" fill="#727c8e"/>
</svg>
