<svg xmlns="http://www.w3.org/2000/svg" width="20.4" height="20.401" viewBox="0 0 20.4 20.401">
  <path id="rate" d="M-1433-480v-10a9.995,9.995,0,0,1,10-10,9.995,9.995,0,0,1,10,10,9.995,9.995,0,0,1-10,10Zm1.172-10v8.828H-1423a8.823,8.823,0,0,0,8.828-8.828,8.823,8.823,0,0,0-8.828-8.828A8.823,8.823,0,0,0-1431.828-490Zm8.828,4.646-4.1,1.566.221-4.387-2.758-3.419,4.241-1.145,2.4-3.679,2.4,3.679,4.241,1.145-2.758,3.419.221,4.387Zm2.843-.169-.154-3.038,1.911-2.369-2.938-.793-1.662-2.549-1.662,2.549-2.938.793,1.911,2.369-.154,3.038,2.843-1.085Z" transform="translate(1433.2 500.2)" fill="#727c8e" stroke="#727c8e" stroke-width="0.4"/>
</svg>
