<svg xmlns="http://www.w3.org/2000/svg" width="5.657" height="8.485" viewBox="0 0 5.657 8.485">
  <g id="Group_141" data-name="Group 141" transform="translate(-357.086 -494.757)">
    <g id="Path_153" data-name="Path 153" transform="translate(357.086 496.172) rotate(-45)" fill="#fff">
      <path d="M 1 5.5 C 0.7243000268936157 5.5 0.5 5.275700092315674 0.5 5 L 0.5 1 C 0.5 0.7243000268936157 0.7243000268936157 0.5 1 0.5 C 1.275699973106384 0.5 1.5 0.7243000268936157 1.5 1 L 1.5 5 C 1.5 5.275700092315674 1.275699973106384 5.5 1 5.5 Z" stroke="none"/>
      <path d="M 1 1 L 1 5 L 1.001260042190552 1.000050067901611 C 1.001260042190552 1.000050067901611 1.000859975814819 1 1 1 M 1 0 C 1.552279949188232 0 2 0.4477200508117676 2 1 L 2 5 C 2 5.552279949188232 1.552279949188232 6 1 6 C 0.4477200508117676 6 0 5.552279949188232 0 5 L 0 1 C 0 0.4477200508117676 0.4477200508117676 0 1 0 Z" stroke="none" fill="#727c8e"/>
    </g>
    <g id="Path_152" data-name="Path 152" transform="translate(361.328 497.586) rotate(45)" fill="#fff">
      <path d="M 1 5.5 C 0.7243000268936157 5.5 0.5 5.275700092315674 0.5 5 L 0.5 1 C 0.5 0.7243000268936157 0.7243000268936157 0.5 1 0.5 C 1.275699973106384 0.5 1.5 0.7243000268936157 1.5 1 L 1.5 5 C 1.5 5.275700092315674 1.275699973106384 5.5 1 5.5 Z" stroke="none"/>
      <path d="M 1 1 L 1 5 L 1.001260042190552 1.000050067901611 C 1.001260042190552 1.000050067901611 1.000859975814819 1 1 1 M 1 0 C 1.552279949188232 0 2 0.4477200508117676 2 1 L 2 5 C 2 5.552279949188232 1.552279949188232 6 1 6 C 0.4477200508117676 6 0 5.552279949188232 0 5 L 0 1 C 0 0.4477200508117676 0.4477200508117676 0 1 0 Z" stroke="none" fill="#727c8e"/>
    </g>
  </g>
</svg>
