<svg xmlns="http://www.w3.org/2000/svg" width="10.279" height="13.444" viewBox="0 0 10.279 13.444">
  <g id="share-arrow" transform="translate(-48.647 -1.616)">
    <g id="Group_27" data-name="Group 27" transform="translate(47.727 0)">
      <path id="Path_14" data-name="Path 14" d="M117.438,12.71a.724.724,0,0,0,.722-.722V2.211l3.079,2.742a.724.724,0,1,0,.962-1.082L118.051.179a.726.726,0,0,0-.926-.024.726.726,0,0,0-.313.289l-3.6,3.451a.723.723,0,1,0,1,1.046l2.5-2.405v9.452A.724.724,0,0,0,117.438,12.71Z" transform="translate(-111.658 2)" fill="#fff" stroke="#fff" stroke-width="0.7"/>
    </g>
  </g>
</svg>
