<svg xmlns="http://www.w3.org/2000/svg" width="18.06" height="21.265" viewBox="0 0 18.06 21.265">
  <g id="_006-shield" data-name="006-shield" transform="translate(0.089 0.166)">
    <path id="Path_60" data-name="Path 60" d="M17.862,5.7V5.681c-.009-.2-.015-.415-.019-.653a2.226,2.226,0,0,0-2.1-2.18A8.637,8.637,0,0,1,9.869.37L9.855.357a1.344,1.344,0,0,0-1.826,0L8.015.37A8.637,8.637,0,0,1,2.137,2.848a2.226,2.226,0,0,0-2.1,2.18c0,.236-.01.449-.019.652v.038a22.759,22.759,0,0,0,.92,8.307,10.575,10.575,0,0,0,2.537,3.952,13.272,13.272,0,0,0,4.965,2.937,1.535,1.535,0,0,0,.2.055,1.5,1.5,0,0,0,.591,0,1.537,1.537,0,0,0,.2-.056,13.28,13.28,0,0,0,4.96-2.938,10.59,10.59,0,0,0,2.537-3.953A22.793,22.793,0,0,0,17.862,5.7Zm-2.08,7.9c-1.081,2.931-3.288,4.944-6.747,6.154L9,19.761a.277.277,0,0,1-.108,0l-.039-.01C5.386,18.543,3.178,16.531,2.1,13.6a21.473,21.473,0,0,1-.844-7.858V5.728c.01-.213.016-.437.02-.682a.989.989,0,0,1,.932-.968,10.812,10.812,0,0,0,3.67-.807,9.6,9.6,0,0,0,2.99-2.009.114.114,0,0,1,.153,0,9.6,9.6,0,0,0,2.99,2.009,10.812,10.812,0,0,0,3.67.807.989.989,0,0,1,.932.968c0,.247.01.47.02.682A21.484,21.484,0,0,1,15.782,13.6Zm0,0" transform="translate(0)" fill="#727c8e" stroke="#727c8e" stroke-width="0.2"/>
    <path id="Path_61" data-name="Path 61" d="M95.632,128.41a5.234,5.234,0,1,0,5.233,5.233A5.239,5.239,0,0,0,95.632,128.41Zm0,9.235a4,4,0,1,1,4-4A4.006,4.006,0,0,1,95.632,137.645Zm0,0" transform="translate(-86.691 -123.144)" fill="#727c8e" stroke="#727c8e" stroke-width="0.2"/>
    <path id="Path_62" data-name="Path 62" d="M157.815,212.172l-2.431,2.431-.66-.66a.616.616,0,1,0-.871.871l1.1,1.1a.616.616,0,0,0,.871,0l2.867-2.867a.616.616,0,1,0-.871-.871Zm0,0" transform="translate(-147.37 -203.297)" fill="#727c8e" stroke="#727c8e" stroke-width="0.2"/>
  </g>
</svg>
