<svg xmlns="http://www.w3.org/2000/svg" xmlns:xlink="http://www.w3.org/1999/xlink" width="55" height="46.18" viewBox="0 0 55 46.18">
  <defs>
    <linearGradient id="linear-gradient" x1="0.5" x2="0.5" y2="1" gradientUnits="objectBoundingBox">
      <stop offset="0" stop-color="#fff"/>
      <stop offset="1" stop-color="#fff" stop-opacity="0.525"/>
    </linearGradient>
    <filter id="Shoes" x="0" y="0" width="55" height="46.18" filterUnits="userSpaceOnUse">
      <feOffset dy="8" input="SourceAlpha"/>
      <feGaussianBlur stdDeviation="3" result="blur"/>
      <feFlood flood-color="#009b12" flood-opacity="0.518"/>
      <feComposite operator="in" in2="blur"/>
      <feComposite in="SourceGraphic"/>
    </filter>
  </defs>
  <g transform="matrix(1, 0, 0, 1, 0, 0)" filter="url(#Shoes)">
    <path id="Shoes-2" data-name="Shoes" d="M16,28.18a4.361,4.361,0,0,1-4.01-2.732L6.547,13.072,5.485,27.183a1.072,1.072,0,0,1-1.084,1H3.273a1.078,1.078,0,0,1-1.062-1.127A83.431,83.431,0,0,0,.282,7.609,10.139,10.139,0,0,1,0,6.091,11.74,11.74,0,0,1,1.561.563,1.09,1.09,0,0,1,3.1.174c5.249,3.5,7.692,8.319,10.065,13.678,4.358,9.754,10.037,8.54,10.384,8.714,2.644,0,6.2-1.171,4.1-3.121A41.876,41.876,0,0,1,35.737,23a2.828,2.828,0,0,1,1.128,3.208,2.746,2.746,0,0,1-2.688,1.973Zm7.529-7.3a7.875,7.875,0,0,1-4.319-1.552,17.259,17.259,0,0,1-5.037-7c-.146-.327-.3-.65-.445-.976,2.75,3.054,6.893,6.6,10.2,7.41,1.105.266,2.1.554,3.048.859a4.322,4.322,0,0,1-3.2,1.259Z" transform="translate(9 1)" fill="url(#linear-gradient)"/>
  </g>
</svg>
