<svg xmlns="http://www.w3.org/2000/svg" xmlns:xlink="http://www.w3.org/1999/xlink" width="55.911" height="57.834" viewBox="0 0 55.911 57.834">
  <defs>
    <linearGradient id="linear-gradient" x1="0.5" x2="0.5" y2="1" gradientUnits="objectBoundingBox">
      <stop offset="0" stop-color="#fff"/>
      <stop offset="1" stop-color="#fff" stop-opacity="0.518"/>
    </linearGradient>
    <filter id="Union_7" x="0" y="0" width="55.911" height="57.834" filterUnits="userSpaceOnUse">
      <feOffset dy="8" input="SourceAlpha"/>
      <feGaussianBlur stdDeviation="3" result="blur"/>
      <feFlood flood-color="#1e2631" flood-opacity="0.345"/>
      <feComposite operator="in" in2="blur"/>
      <feComposite in="SourceGraphic"/>
    </filter>
  </defs>
  <g transform="matrix(1, 0, 0, 1, 0, 0)" filter="url(#Union_7)">
    <path id="Union_7-2" data-name="Union 7" d="M-28.081-1572.044a3.506,3.506,0,0,1-3.474-3.066l-1.367-11.093H-8.689l-.875,7h1.6A4.673,4.673,0,0,0-3.3-1583.87a4.674,4.674,0,0,0-4.668-4.668H-33.215l-.419-3.356a1.171,1.171,0,0,1,.284-.917,1.165,1.165,0,0,1,.875-.394H-9.135a1.167,1.167,0,0,1,1.158,1.311l-.129,1.022h.138a7.01,7.01,0,0,1,7,7,7.077,7.077,0,0,1-7,7.08H-9.856l-.2,1.679a3.506,3.506,0,0,1-3.474,3.066Zm13.111-23.5v-4.537c.745-.588,1.474-1.129,2.149-1.558a9.1,9.1,0,0,1,2.82-1.294,5.788,5.788,0,0,0,1.009,1.417,5.826,5.826,0,0,0,1.41,1.005,9.08,9.08,0,0,1-1.293,2.817c-.43.674-.97,1.4-1.558,2.149Zm-9.337,0v-7h7v7Zm-6.6,0-7.062-7.061a1.167,1.167,0,0,1,0-1.65l2.617-2.617a1.168,1.168,0,0,1,1.651,0l7.061,7.061v4.267Zm23.564-7.626h0a3.51,3.51,0,0,1,0-4.952,3.5,3.5,0,0,1,.973-.686l4.494-1.264a1.163,1.163,0,0,1,1.138.3,1.168,1.168,0,0,1,.3,1.138l-1.194,4.307a3.512,3.512,0,0,1-.753,1.156,3.49,3.49,0,0,1-2.477,1.024A3.5,3.5,0,0,1-7.343-1603.166Zm-16.963-1.71v-1.167a1.168,1.168,0,0,1,.123-.522l2.334-4.72a1.216,1.216,0,0,1,2.088,0l2.334,4.72a1.168,1.168,0,0,1,.123.522v1.167Z" transform="translate(47.31 1612.88)" fill="url(#linear-gradient)"/>
  </g>
</svg>
