<svg xmlns="http://www.w3.org/2000/svg" width="20" height="20" viewBox="0 0 20 20">
  <g id="suggest" transform="translate(0 0)">
    <g id="Group_84" data-name="Group 84" transform="translate(0 1.839)">
      <g id="Group_83" data-name="Group 83">
        <path id="Path_40" data-name="Path 40" d="M17.354,56.864a.808.808,0,0,0-.808.808V62.58a1.032,1.032,0,0,1-1.031,1.031H2.646A1.032,1.032,0,0,1,1.616,62.58V49.711a1.032,1.032,0,0,1,1.031-1.031H7.555a.808.808,0,1,0,0-1.616H2.646A2.649,2.649,0,0,0,0,49.711V62.58a2.649,2.649,0,0,0,2.646,2.646H15.515a2.649,2.649,0,0,0,2.646-2.646V57.672A.808.808,0,0,0,17.354,56.864Z" transform="translate(0 -47.065)" fill="#727c8e"/>
      </g>
    </g>
    <g id="Group_86" data-name="Group 86" transform="translate(5.515 0)">
      <g id="Group_85" data-name="Group 85">
        <path id="Path_41" data-name="Path 41" d="M155.439,3.914,151.762.237a.808.808,0,0,0-1.143,0l-9.192,9.192a.808.808,0,0,0-.237.571v3.677a.808.808,0,0,0,.808.808h3.677a.808.808,0,0,0,.571-.237l9.192-9.192a.808.808,0,0,0,0-1.143Zm-10.1,8.955h-2.534V10.335l8.384-8.384,2.534,2.534Z" transform="translate(-141.191 0)" fill="#727c8e"/>
      </g>
    </g>
  </g>
</svg>
